<?xml version="1.0"?>
<svg xmlns="http://www.w3.org/2000/svg" xmlns:xlink="http://www.w3.org/1999/xlink" xmlns:svgjs="http://svgjs.com/svgjs" version="1.1" width="512" height="512" x="0" y="0" viewBox="0 0 612 612" style="enable-background:new 0 0 512 512" xml:space="preserve" class=""><circle r="306" cx="306" cy="306" fill="#97d0e1" shape="circle"/><g transform="matrix(0.7,0,0,0.7,91.80000000000001,91.80000000000001)">
<g xmlns="http://www.w3.org/2000/svg">
	<g id="_x33__2_">
		<g>
			<path d="M442.189,219.249L306,355.457L169.811,219.268c-7.478-7.478-19.584-7.478-27.043,0c-7.478,7.478-7.478,19.565,0,27.043     l146.44,146.44c4.59,4.59,10.863,6.005,16.812,4.973c5.929,1.052,12.221-0.383,16.811-4.973l146.44-146.44     c7.478-7.478,7.478-19.565,0-27.043C461.773,211.79,449.667,211.79,442.189,219.249z M306,0C136.992,0,0,136.992,0,306     s136.992,306,306,306s306-137.012,306-306S475.008,0,306,0z M306,573.75C158.125,573.75,38.25,453.875,38.25,306     C38.25,158.125,158.125,38.25,306,38.25c147.875,0,267.75,119.875,267.75,267.75C573.75,453.875,453.875,573.75,306,573.75z" fill="#efefef" data-original="#000000" style="" class=""/>
		</g>
	</g>
</g>
<g xmlns="http://www.w3.org/2000/svg">
</g>
<g xmlns="http://www.w3.org/2000/svg">
</g>
<g xmlns="http://www.w3.org/2000/svg">
</g>
<g xmlns="http://www.w3.org/2000/svg">
</g>
<g xmlns="http://www.w3.org/2000/svg">
</g>
<g xmlns="http://www.w3.org/2000/svg">
</g>
<g xmlns="http://www.w3.org/2000/svg">
</g>
<g xmlns="http://www.w3.org/2000/svg">
</g>
<g xmlns="http://www.w3.org/2000/svg">
</g>
<g xmlns="http://www.w3.org/2000/svg">
</g>
<g xmlns="http://www.w3.org/2000/svg">
</g>
<g xmlns="http://www.w3.org/2000/svg">
</g>
<g xmlns="http://www.w3.org/2000/svg">
</g>
<g xmlns="http://www.w3.org/2000/svg">
</g>
<g xmlns="http://www.w3.org/2000/svg">
</g>
</g></svg>
